<svg id="Capa_1" data-name="Capa 1" xmlns="http://www.w3.org/2000/svg" viewBox="0 0 157.85 41.29"><defs><style>.cls-1{fill:#acc90f;}.cls-2{fill:#622483;stroke:#662483;}.cls-2,.cls-3,.cls-4,.cls-5{stroke-miterlimit:10;}.cls-3{fill:#e94c31;stroke:#e55f5d;stroke-width:0.5px;}.cls-4{fill:#e72278;stroke:#e72278;}.cls-5{fill:#2791d0;stroke:#2791d0;}.cls-6{fill:#e52421;}.cls-7{fill:none;}.cls-8{fill:#0c0c0c;}</style></defs><rect class="cls-1" x="255.63" y="411.1" width="4.63" height="27.71" transform="translate(-219.64 -399.35) rotate(-0.15)"/><path class="cls-1" d="M271.35,419c0-4.4-4.66-7.95-10.38-7.94L261,427C266.73,427,271.37,423.43,271.35,419Z" transform="translate(-218.55 -400.01)"/><polygon class="cls-1" points="49.61 25.81 45.94 27.67 52.04 38.77 55.71 36.91 49.61 25.81"/><polygon class="cls-2" points="122.48 19.6 115.73 10.35 113.29 36.01 116.4 37.2 117.45 19.04 122.53 25.02 127.19 19.66 129.26 37.26 133.27 35.76 128.8 9.54 122.48 19.6"/><path class="cls-3" d="M245.18,400.59l-.51,34.49-12.43-32.61-13.37,36.4,5.34,2.09,3.06-10.82,9.77-.23,3.76,10.45,9.28,0,.58-35.9,125.49-.65v-3.58ZM228,424.37l4.5-10.66L237,424.35Z" transform="translate(-218.55 -400.01)"/><polygon class="cls-4" points="86.45 11.5 64.5 11.55 64.52 16.36 73.15 16.43 73.48 38.19 77.88 38.18 77.64 16.28 86.28 16.13 86.45 11.5"/><path class="cls-5" d="M329.43,410.66l-20.64-.18,0,5.39,5.35.08a48.46,48.46,0,0,1-3.65,12.66,44.37,44.37,0,0,1-4.45,7.77l4.51.72a47.72,47.72,0,0,0,3.65-8.22,51.31,51.31,0,0,0,2.55-12.68l3.15-.27a76.26,76.26,0,0,0,3.75,19c.45,1.35.56,1.69,1.05,2.93,2.36-.26,5.52-.48,5.52-.48,0-.2-.19-.36-.29-.44-.75-.63-1.4-2.09-2.7-5a55.29,55.29,0,0,1-3.34-16.28l5.63-.63Z" transform="translate(-218.55 -400.01)"/><path class="cls-6" d="M277.94,428.44a21.73,21.73,0,0,1,.59-11.61c-1.3.17-2.17-.13-3.47,0-1.13,4.09-2.51,11.87,1.55,19a21.09,21.09,0,0,0,1.55,2.34l3.9-.51A23.1,23.1,0,0,1,277.94,428.44Z" transform="translate(-218.55 -400.01)"/><ellipse class="cls-6" cx="277.31" cy="412.7" rx="2.58" ry="2.46" transform="translate(-219.61 -399.3) rotate(-0.15)"/><path class="cls-7" d="M368.36,421.08c-.43-4.82-2.87-8.52-5.83-8.51s-5.38,3.72-5.78,8.54Z" transform="translate(-218.55 -400.01)"/><path class="cls-7" d="M356.84,424.82c.61,4.44,3,7.74,5.74,7.73s5.12-3.32,5.71-7.76Z" transform="translate(-218.55 -400.01)"/><path class="cls-8" d="M362.14,407.9c-5.19,0-9.38,6.59-9.36,14.69s4.25,14.65,9.43,14.64,9.38-6.59,9.36-14.69S367.33,407.88,362.14,407.9Zm.39,4.67c3,0,5.4,3.69,5.83,8.51l-11.61,0C357.15,416.29,359.58,412.58,362.53,412.57Zm.05,20c-2.79,0-5.13-3.29-5.74-7.73l11.45,0C367.7,429.23,365.38,432.55,362.58,432.55Z" transform="translate(-218.55 -400.01)"/></svg>