<svg id="Capa_1" data-name="Capa 1" xmlns="http://www.w3.org/2000/svg" viewBox="0 0 324.55 324.55"><defs><style>.cls-1{fill:#fff;}.cls-15,.cls-2,.cls-4,.cls-6{fill:none;}.cls-2{stroke:#1d1d1b;}.cls-10,.cls-11,.cls-12,.cls-13,.cls-2,.cls-4,.cls-5,.cls-6,.cls-8{stroke-miterlimit:10;}.cls-3,.cls-5{fill:#5c4695;}.cls-4{stroke:#2790cf;}.cls-5,.cls-6,.cls-8{stroke:#fff;}.cls-6{stroke-width:2px;}.cls-7,.cls-8{fill:#f5edcd;}.cls-8{stroke-width:0.1px;}.cls-9{fill:#a8c714;}.cls-10{fill:#8d2f88;stroke:#652580;}.cls-11{fill:#e84c30;stroke:#e45f5d;stroke-width:0.5px;}.cls-12{fill:#ffd83f;stroke:#ffd83f;}.cls-13{fill:#298fce;stroke:#298fce;}.cls-14{fill:#e32521;}.cls-16{fill:#0c0c0c;}</style></defs><circle class="cls-1" cx="162.27" cy="162.27" r="162.27"/><path class="cls-2" d="M1053.17,558" transform="translate(-797.39 -378.06)"/><path class="cls-3" d="M929.05,444.9a2.49,2.49,0,1,0-3.54,3.49l4.93,4.54L926,457.79a2.62,2.62,0,0,0,0,3.51,2.65,2.65,0,0,0,3.8.2l4.48-4.85,5,5a3,3,0,0,0,2.57-.09,2.94,2.94,0,0,0,.78-3.78l-5-4.76,4.19-4.51a2.78,2.78,0,0,0,.63-3.57,2.91,2.91,0,0,0-4.31,0l-4.1,4.35Z" transform="translate(-797.39 -378.06)"/><path class="cls-2" d="M977.14,431.68" transform="translate(-797.39 -378.06)"/><path class="cls-3" d="M975.67,423.11l-21.74-.25,0,5.54,5.63.1a48.56,48.56,0,0,1-3.88,13,44.58,44.58,0,0,1-4.71,8l4.76.76a49.49,49.49,0,0,0,3.87-8.44,51.92,51.92,0,0,0,2.71-13l3.32-.27a77.11,77.11,0,0,0,3.9,19.5c.47,1.39.58,1.74,1.1,3,2.48-.26,5.82-.47,5.82-.47,0-.21-.21-.38-.31-.46-.79-.64-1.47-2.15-2.83-5.15a55.69,55.69,0,0,1-3.48-16.74l5.93-.63Z" transform="translate(-797.39 -378.06)"/><path class="cls-4" d="M999.07,555.23" transform="translate(-797.39 -378.06)"/><ellipse class="cls-3" cx="192.84" cy="67.91" rx="3.03" ry="3.14"/><ellipse class="cls-3" cx="200.82" cy="81.2" rx="3.03" ry="3.14"/><path class="cls-3" d="M1005.68,444.36c-.58-1.32-3.82-.59-7.1,1.75l-12.9,9.34c-2.86,2.52-4,5-2.86,5.76.93.6,3.22,0,5.73-1.52l12.9-9.34C1004.4,448.19,1006.2,445.56,1005.68,444.36Z" transform="translate(-797.39 -378.06)"/><path class="cls-5" d="M910.15,577.41a49.39,49.39,0,0,1,5-.3,48.57,48.57,0,0,1,7.66.56,70,70,0,0,1,42.63,20.77l0,0,.06-.05c2.26-2.82,16.14-21.52,41.88-22.82a43.64,43.64,0,0,1,13.45.62c22.9,3.08,34,15.75,39.29,21.41a1.13,1.13,0,0,0,2-.78l-.84-116.45a1.09,1.09,0,0,0-.42-.87,72.23,72.23,0,0,0-47.31-15.14A70.33,70.33,0,0,0,965.49,486a1.12,1.12,0,0,1-1.66,0c-4-4.4-22-20.88-51.7-22.45-29.35-1.55-47.8,20-50.84,23.43a1.16,1.16,0,0,0-.28.75V599.41a1.12,1.12,0,0,0,1.8.9h0a.73.73,0,0,0,.18-.17A70.21,70.21,0,0,1,910.15,577.41Z" transform="translate(-797.39 -378.06)"/><path class="cls-5" d="M1024.16,576.25c-1.21-.35-2.41-.64-3.6-.88a77.81,77.81,0,0,0-10.69-.7c-.94,0-1.86,0-2.76.07-22,2.36-38.66,20.14-41.88,22.83l-.05.08,0-.06c-5.49-3.22-22.3-17.76-42.64-20.78a72.63,72.63,0,0,0-7.66-.43c-1.72,0-3.39.06-5,.17-21.45,2.31-40.06,17.48-47.29,22.87l94.28.24a.81.81,0,0,1,.44,1.48h0c-.58.53-.18,1.67.44,1.48h15.49l-1-2A1,1,0,0,1,973,599l88.87-.25h0C1056.33,594.52,1047.47,583.09,1024.16,576.25Z" transform="translate(-797.39 -378.06)"/><line class="cls-6" x1="66.7" y1="116.94" x2="84.85" y2="102.68"/><line class="cls-6" x1="66.88" y1="128.2" x2="84.74" y2="114.19"/><line class="cls-6" x1="66.92" y1="140.38" x2="84.73" y2="126.41"/><line class="cls-6" x1="66.98" y1="152.65" x2="84.56" y2="138.55"/><line class="cls-6" x1="67.05" y1="165.66" x2="84.5" y2="151.17"/><line class="cls-6" x1="67.05" y1="178.82" x2="84.43" y2="165.2"/><path class="cls-6" d="M984.69,561.6" transform="translate(-797.39 -378.06)"/><path class="cls-6" d="M967.89,574.67" transform="translate(-797.39 -378.06)"/><path class="cls-6" d="M985,569.93" transform="translate(-797.39 -378.06)"/><path class="cls-6" d="M968,583.16" transform="translate(-797.39 -378.06)"/><path class="cls-6" d="M983.35,488.75" transform="translate(-797.39 -378.06)"/><path class="cls-6" d="M966.18,501.17" transform="translate(-797.39 -378.06)"/><line class="cls-6" x1="167.37" y1="135.74" x2="184.89" y2="123.1"/><path class="cls-6" d="M983.21,518.08" transform="translate(-797.39 -378.06)"/><path class="cls-6" d="M966.43,530.69" transform="translate(-797.39 -378.06)"/><path class="cls-6" d="M983.11,532.52" transform="translate(-797.39 -378.06)"/><path class="cls-6" d="M965.24,546.53" transform="translate(-797.39 -378.06)"/><path class="cls-6" d="M984.36,547.56" transform="translate(-797.39 -378.06)"/><path class="cls-6" d="M966.56,561.52" transform="translate(-797.39 -378.06)"/><path class="cls-7" d="M1026.11,498.66l3.65-4a2.54,2.54,0,0,0,.54-3.21,2.48,2.48,0,0,0-3.74,0q-1.79,1.94-3.56,3.89l-4.28-3.94a2.37,2.37,0,0,0-3.49.44,2.56,2.56,0,0,0,.42,2.68l4.29,4.06-3.85,4.35a2.39,2.39,0,0,0,0,3.14,2.26,2.26,0,0,0,3.3.18l3.9-4.34,4.31,4.49a2.49,2.49,0,0,0,2.23-.08,2.68,2.68,0,0,0,.68-3.38Z" transform="translate(-797.39 -378.06)"/><path class="cls-8" d="M1042.19,487.37v-2.91h-37.63l.54,21.82-7.74-6.62L995,501.72,1008.36,514l-.05-26.63Z" transform="translate(-797.39 -378.06)"/><path class="cls-7" d="M912.48,499.07v7.05a3,3,0,0,0,1.89,1.74,3,3,0,0,0,3.22-2.13l-.24-6.92,6.15-.27a2.79,2.79,0,0,0,3-2.1,2.92,2.92,0,0,0-3.07-3l-6,.22L917,487a2.48,2.48,0,1,0-5,0q.15,3.36.32,6.7l-6.56.35a2.62,2.62,0,0,0-2.49,2.48,2.65,2.65,0,0,0,2.56,2.81Z" transform="translate(-797.39 -378.06)"/><rect class="cls-8" x="107.09" y="131.49" width="21.99" height="3.11"/><line class="cls-6" x1="67.13" y1="194.17" x2="84.51" y2="180.54"/><line class="cls-6" x1="67.05" y1="209.51" x2="84.43" y2="195.88"/><path class="cls-6" d="M966.2,597.59" transform="translate(-797.39 -378.06)"/><path class="cls-6" d="M965.35,486.11" transform="translate(-797.39 -378.06)"/><path class="cls-6" d="M983.78,494.28" transform="translate(-797.39 -378.06)"/><path class="cls-6" d="M965.86,506.91" transform="translate(-797.39 -378.06)"/><line class="cls-6" x1="167.89" y1="140.65" x2="185.56" y2="128.14"/><path class="cls-6" d="M984,524.55" transform="translate(-797.39 -378.06)"/><path class="cls-6" d="M965.8,538.82" transform="translate(-797.39 -378.06)"/><path class="cls-6" d="M984,540.33" transform="translate(-797.39 -378.06)"/><path class="cls-6" d="M965.8,554.6" transform="translate(-797.39 -378.06)"/><path class="cls-6" d="M984.63,553.64" transform="translate(-797.39 -378.06)"/><path class="cls-6" d="M967.25,567.31" transform="translate(-797.39 -378.06)"/><path class="cls-6" d="M984.54,576.34" transform="translate(-797.39 -378.06)"/><path class="cls-6" d="M968.74,588.64" transform="translate(-797.39 -378.06)"/><path class="cls-6" d="M981.27,483.44" transform="translate(-797.39 -378.06)"/><path class="cls-6" d="M965.85,495.54" transform="translate(-797.39 -378.06)"/><path class="cls-6" d="M979.42,479.7" transform="translate(-797.39 -378.06)"/><path class="cls-6" d="M965.35,490.73" transform="translate(-797.39 -378.06)"/><path class="cls-6" d="M984.05,510.39" transform="translate(-797.39 -378.06)"/><path class="cls-6" d="M965.9,524.66" transform="translate(-797.39 -378.06)"/><line class="cls-6" x1="166.56" y1="126.31" x2="184.71" y2="112.05"/><line class="cls-6" x1="166.49" y1="131.7" x2="184.64" y2="117.43"/><line class="cls-6" x1="166.55" y1="120.44" x2="183.8" y2="106.89"/><line class="cls-6" x1="166.99" y1="114.04" x2="181.58" y2="102.57"/><line class="cls-6" x1="167.93" y1="147.51" x2="186.08" y2="133.25"/><line class="cls-6" x1="168" y1="154" x2="186.15" y2="139.74"/><line class="cls-6" x1="167.4" y1="160.14" x2="185.55" y2="145.87"/><line class="cls-6" x1="167.58" y1="166.54" x2="185.73" y2="152.27"/><line class="cls-6" x1="168.21" y1="172.86" x2="186.36" y2="158.59"/><line class="cls-6" x1="168.04" y1="179.67" x2="186.19" y2="165.4"/><line class="cls-6" x1="167.4" y1="187.47" x2="185.54" y2="173.2"/><line class="cls-6" x1="166.82" y1="194.16" x2="184.97" y2="179.9"/><line class="cls-6" x1="167.72" y1="201.92" x2="185.87" y2="187.66"/><line class="cls-6" x1="168.37" y1="209.37" x2="186.52" y2="195.11"/><line class="cls-6" x1="67.13" y1="201.6" x2="84.51" y2="187.97"/><line class="cls-6" x1="67.05" y1="185.64" x2="84.43" y2="172.01"/><line class="cls-6" x1="67.13" y1="172.54" x2="84.51" y2="158.91"/><line class="cls-6" x1="67.13" y1="158.54" x2="84.51" y2="144.92"/><line class="cls-6" x1="67.05" y1="146.32" x2="84.43" y2="132.69"/><line class="cls-6" x1="67.05" y1="134.56" x2="84.43" y2="120.93"/><line class="cls-6" x1="67.05" y1="123.03" x2="84.43" y2="109.41"/><rect class="cls-9" x="917.35" y="620.52" width="4.95" height="29.44" transform="translate(-799.01 -375.72) rotate(-0.15)"/><path class="cls-9" d="M934.18,629c0-4.67-5-8.45-11.12-8.43l0,16.92C929.23,637.43,934.19,633.63,934.18,629Z" transform="translate(-797.39 -378.06)"/><polygon class="cls-9" points="133.37 258.1 129.44 260.07 135.97 271.87 139.9 269.9 133.37 258.1"/><polygon class="cls-10" points="211.36 251.5 204.14 241.67 201.52 268.94 204.85 270.21 205.98 250.91 211.41 257.26 216.4 251.56 218.62 270.26 222.91 268.67 218.13 240.82 211.36 251.5"/><path class="cls-11" d="M906.16,609.36,905.62,646l-13.3-34.66L878,650l5.72,2.22,3.27-11.5,10.46-.24,4,11.1,9.94,0L912,613.5l134.32-.69V609Zm-18.41,25.27,4.81-11.34,4.87,11.31Z" transform="translate(-797.39 -378.06)"/><polygon class="cls-12" points="172.79 242.89 149.31 242.95 149.32 248.06 158.56 248.13 158.91 271.26 163.63 271.25 163.37 247.97 172.61 247.81 172.79 242.89"/><path class="cls-13" d="M996.34,620.05l-22.09-.19,0,5.73,5.73.09A51.18,51.18,0,0,1,976,639.13a47.05,47.05,0,0,1-4.76,8.26l4.83.76a51.09,51.09,0,0,0,3.91-8.73,54.6,54.6,0,0,0,2.72-13.48l3.38-.29a80.69,80.69,0,0,0,4,20.15c.49,1.44.6,1.8,1.13,3.11,2.53-.27,5.91-.51,5.91-.51,0-.21-.2-.38-.31-.46-.81-.67-1.5-2.22-2.89-5.33-.94-2.12-2.93-8.44-3.57-17.29l6-.67Z" transform="translate(-797.39 -378.06)"/><path class="cls-14" d="M941.23,638.94a22.91,22.91,0,0,1,.63-12.33c-1.39.18-2.33-.14-3.72,0-1.21,4.35-2.68,12.62,1.67,20.23a21.5,21.5,0,0,0,1.65,2.49l4.18-.55A24.23,24.23,0,0,1,941.23,638.94Z" transform="translate(-797.39 -378.06)"/><ellipse class="cls-14" cx="940.55" cy="622.22" rx="2.76" ry="2.61" transform="translate(-798.78 -375.96) rotate(-0.13)"/><path class="cls-15" d="M1038,631.12c-.46-5.12-3.08-9-6.24-9s-5.76,3.95-6.2,9.08Z" transform="translate(-797.39 -378.06)"/><path class="cls-15" d="M1025.67,635.1c.66,4.71,3.17,8.23,6.15,8.22s5.48-3.53,6.11-8.25Z" transform="translate(-797.39 -378.06)"/><path class="cls-16" d="M1031.35,617.12c-5.56,0-10,7-10,15.61s4.54,15.57,10.1,15.55,10-7,10-15.6S1036.9,617.1,1031.35,617.12Zm.42,5c3.16,0,5.78,3.92,6.24,9l-12.44,0C1026,626,1028.61,622.09,1031.77,622.08Zm0,21.24c-3,0-5.49-3.51-6.15-8.22l12.26,0C1037.3,639.79,1034.81,643.31,1031.82,643.32Z" transform="translate(-797.39 -378.06)"/></svg>